ISO-10303-21;
HEADER;
FILE_DESCRIPTION(('FreeCAD Model'),'2;1');
FILE_NAME('Open CASCADE Shape Model','2025-04-17T11:49:30',(''),(''),
  'Open CASCADE STEP processor 7.8','FreeCAD','Unknown');
FILE_SCHEMA(('AUTOMOTIVE_DESIGN { 1 0 10303 214 1 1 1 1 }'));
ENDSEC;
DATA;
#1 = APPLICATION_PROTOCOL_DEFINITION('international standard',
  'automotive_design',2000,#2);
#2 = APPLICATION_CONTEXT(
  'core data for automotive mechanical design processes');
#3 = SHAPE_DEFINITION_REPRESENTATION(#4,#10);
#4 = PRODUCT_DEFINITION_SHAPE('','',#5);
#5 = PRODUCT_DEFINITION('design','',#6,#9);
#6 = PRODUCT_DEFINITION_FORMATION('','',#7);
#7 = PRODUCT('PcbStandoff','PcbStandoff','',(#8));
#8 = PRODUCT_CONTEXT('',#2,'mechanical');
#9 = PRODUCT_DEFINITION_CONTEXT('part definition',#2,'design');
#10 = ADVANCED_BREP_SHAPE_REPRESENTATION('',(#11,#15),#594);
#11 = AXIS2_PLACEMENT_3D('',#12,#13,#14);
#12 = CARTESIAN_POINT('',(0.,0.,0.));
#13 = DIRECTION('',(0.,0.,1.));
#14 = DIRECTION('',(1.,0.,-0.));
#15 = MANIFOLD_SOLID_BREP('',#16);
#16 = CLOSED_SHELL('',(#17,#57,#160,#263,#296,#313,#351,#375,#422,#439,
    #456,#473,#490,#507,#524,#536,#553,#570,#582));
#17 = ADVANCED_FACE('',(#18),#52,.T.);
#18 = FACE_BOUND('',#19,.T.);
#19 = EDGE_LOOP('',(#20,#30,#38,#46));
#20 = ORIENTED_EDGE('',*,*,#21,.T.);
#21 = EDGE_CURVE('',#22,#24,#26,.T.);
#22 = VERTEX_POINT('',#23);
#23 = CARTESIAN_POINT('',(15.745153254429,0.8,96.8));
#24 = VERTEX_POINT('',#25);
#25 = CARTESIAN_POINT('',(15.745153254429,6.95,96.8));
#26 = LINE('',#27,#28);
#27 = CARTESIAN_POINT('',(15.745153254429,0.8,96.8));
#28 = VECTOR('',#29,1.);
#29 = DIRECTION('',(0.,1.,-2.22044604925E-16));
#30 = ORIENTED_EDGE('',*,*,#31,.T.);
#31 = EDGE_CURVE('',#24,#32,#34,.T.);
#32 = VERTEX_POINT('',#33);
#33 = CARTESIAN_POINT('',(15.745153254429,6.95,91.5));
#34 = LINE('',#35,#36);
#35 = CARTESIAN_POINT('',(15.745153254429,6.95,96.8));
#36 = VECTOR('',#37,1.);
#37 = DIRECTION('',(0.,-2.22044604925E-16,-1.));
#38 = ORIENTED_EDGE('',*,*,#39,.F.);
#39 = EDGE_CURVE('',#40,#32,#42,.T.);
#40 = VERTEX_POINT('',#41);
#41 = CARTESIAN_POINT('',(15.745153254429,0.8,91.5));
#42 = LINE('',#43,#44);
#43 = CARTESIAN_POINT('',(15.745153254429,0.8,91.5));
#44 = VECTOR('',#45,1.);
#45 = DIRECTION('',(0.,1.,-2.22044604925E-16));
#46 = ORIENTED_EDGE('',*,*,#47,.F.);
#47 = EDGE_CURVE('',#22,#40,#48,.T.);
#48 = LINE('',#49,#50);
#49 = CARTESIAN_POINT('',(15.745153254429,0.8,96.8));
#50 = VECTOR('',#51,1.);
#51 = DIRECTION('',(0.,-2.22044604925E-16,-1.));
#52 = PLANE('',#53);
#53 = AXIS2_PLACEMENT_3D('',#54,#55,#56);
#54 = CARTESIAN_POINT('',(15.745153254429,0.8,96.8));
#55 = DIRECTION('',(-1.,0.,0.));
#56 = DIRECTION('',(0.,-2.22044604925E-16,-1.));
#57 = ADVANCED_FACE('',(#58),#155,.T.);
#58 = FACE_BOUND('',#59,.T.);
#59 = EDGE_LOOP('',(#60,#70,#78,#86,#94,#102,#110,#118,#124,#125,#133,
    #141,#149));
#60 = ORIENTED_EDGE('',*,*,#61,.F.);
#61 = EDGE_CURVE('',#62,#64,#66,.T.);
#62 = VERTEX_POINT('',#63);
#63 = CARTESIAN_POINT('',(28.945153254429,0.8,96.8));
#64 = VERTEX_POINT('',#65);
#65 = CARTESIAN_POINT('',(26.795153254429,0.8,96.8));
#66 = LINE('',#67,#68);
#67 = CARTESIAN_POINT('',(28.945153254429,0.8,96.8));
#68 = VECTOR('',#69,1.);
#69 = DIRECTION('',(-1.,0.,0.));
#70 = ORIENTED_EDGE('',*,*,#71,.T.);
#71 = EDGE_CURVE('',#62,#72,#74,.T.);
#72 = VERTEX_POINT('',#73);
#73 = CARTESIAN_POINT('',(28.945153254429,4.447958415842,96.8));
#74 = LINE('',#75,#76);
#75 = CARTESIAN_POINT('',(28.945153254429,0.8,96.8));
#76 = VECTOR('',#77,1.);
#77 = DIRECTION('',(0.,1.,-2.22044604925E-16));
#78 = ORIENTED_EDGE('',*,*,#79,.F.);
#79 = EDGE_CURVE('',#80,#72,#82,.T.);
#80 = VERTEX_POINT('',#81);
#81 = CARTESIAN_POINT('',(25.426360527845,6.95,96.8));
#82 = LINE('',#83,#84);
#83 = CARTESIAN_POINT('',(29.806569236365,3.835447598771,96.8));
#84 = VECTOR('',#85,1.);
#85 = DIRECTION('',(0.814978406484,-0.579491326048,1.286729225497E-16));
#86 = ORIENTED_EDGE('',*,*,#87,.T.);
#87 = EDGE_CURVE('',#80,#88,#90,.T.);
#88 = VERTEX_POINT('',#89);
#89 = CARTESIAN_POINT('',(23.926360527845,6.95,96.8));
#90 = LINE('',#91,#92);
#91 = CARTESIAN_POINT('',(28.945153254429,6.95,96.8));
#92 = VECTOR('',#93,1.);
#93 = DIRECTION('',(-1.,0.,0.));
#94 = ORIENTED_EDGE('',*,*,#95,.F.);
#95 = EDGE_CURVE('',#96,#88,#98,.T.);
#96 = VERTEX_POINT('',#97);
#97 = CARTESIAN_POINT('',(23.926360527845,5.7,96.8));
#98 = LINE('',#99,#100);
#99 = CARTESIAN_POINT('',(23.926360527845,3.875,96.8));
#100 = VECTOR('',#101,1.);
#101 = DIRECTION('',(0.,1.,-2.22044604925E-16));
#102 = ORIENTED_EDGE('',*,*,#103,.F.);
#103 = EDGE_CURVE('',#104,#96,#106,.T.);
#104 = VERTEX_POINT('',#105);
#105 = CARTESIAN_POINT('',(19.926360527845,5.7,96.8));
#106 = LINE('',#107,#108);
#107 = CARTESIAN_POINT('',(26.435756891137,5.7,96.8));
#108 = VECTOR('',#109,1.);
#109 = DIRECTION('',(1.,0.,0.));
#110 = ORIENTED_EDGE('',*,*,#111,.F.);
#111 = EDGE_CURVE('',#112,#104,#114,.T.);
#112 = VERTEX_POINT('',#113);
#113 = CARTESIAN_POINT('',(19.926360527845,6.95,96.8));
#114 = LINE('',#115,#116);
#115 = CARTESIAN_POINT('',(19.926360527845,3.25,96.8));
#116 = VECTOR('',#117,1.);
#117 = DIRECTION('',(0.,-1.,2.22044604925E-16));
#118 = ORIENTED_EDGE('',*,*,#119,.T.);
#119 = EDGE_CURVE('',#112,#24,#120,.T.);
#120 = LINE('',#121,#122);
#121 = CARTESIAN_POINT('',(28.945153254429,6.95,96.8));
#122 = VECTOR('',#123,1.);
#123 = DIRECTION('',(-1.,0.,0.));
#124 = ORIENTED_EDGE('',*,*,#21,.F.);
#125 = ORIENTED_EDGE('',*,*,#126,.F.);
#126 = EDGE_CURVE('',#127,#22,#129,.T.);
#127 = VERTEX_POINT('',#128);
#128 = CARTESIAN_POINT('',(17.895153254429,0.8,96.8));
#129 = LINE('',#130,#131);
#130 = CARTESIAN_POINT('',(28.945153254429,0.8,96.8));
#131 = VECTOR('',#132,1.);
#132 = DIRECTION('',(-1.,0.,0.));
#133 = ORIENTED_EDGE('',*,*,#134,.T.);
#134 = EDGE_CURVE('',#127,#135,#137,.T.);
#135 = VERTEX_POINT('',#136);
#136 = CARTESIAN_POINT('',(17.895153254429,4.15,96.8));
#137 = LINE('',#138,#139);
#138 = CARTESIAN_POINT('',(17.895153254429,0.8,96.8));
#139 = VECTOR('',#140,1.);
#140 = DIRECTION('',(0.,1.,-2.22044604925E-16));
#141 = ORIENTED_EDGE('',*,*,#142,.F.);
#142 = EDGE_CURVE('',#143,#135,#145,.T.);
#143 = VERTEX_POINT('',#144);
#144 = CARTESIAN_POINT('',(26.795153254429,4.15,96.8));
#145 = LINE('',#146,#147);
#146 = CARTESIAN_POINT('',(22.620153254429,4.15,96.8));
#147 = VECTOR('',#148,1.);
#148 = DIRECTION('',(-1.,0.,0.));
#149 = ORIENTED_EDGE('',*,*,#150,.F.);
#150 = EDGE_CURVE('',#64,#143,#151,.T.);
#151 = LINE('',#152,#153);
#152 = CARTESIAN_POINT('',(26.795153254429,0.8,96.8));
#153 = VECTOR('',#154,1.);
#154 = DIRECTION('',(0.,1.,-2.22044604925E-16));
#155 = PLANE('',#156);
#156 = AXIS2_PLACEMENT_3D('',#157,#158,#159);
#157 = CARTESIAN_POINT('',(28.945153254429,0.8,96.8));
#158 = DIRECTION('',(0.,2.22044604925E-16,1.));
#159 = DIRECTION('',(-1.,0.,0.));
#160 = ADVANCED_FACE('',(#161),#258,.T.);
#161 = FACE_BOUND('',#162,.T.);
#162 = EDGE_LOOP('',(#163,#171,#172,#180,#188,#196,#204,#212,#220,#228,
    #236,#244,#252));
#163 = ORIENTED_EDGE('',*,*,#164,.F.);
#164 = EDGE_CURVE('',#40,#165,#167,.T.);
#165 = VERTEX_POINT('',#166);
#166 = CARTESIAN_POINT('',(18.895153254429,0.8,91.5));
#167 = LINE('',#168,#169);
#168 = CARTESIAN_POINT('',(15.745153254429,0.8,91.5));
#169 = VECTOR('',#170,1.);
#170 = DIRECTION('',(1.,0.,0.));
#171 = ORIENTED_EDGE('',*,*,#39,.T.);
#172 = ORIENTED_EDGE('',*,*,#173,.T.);
#173 = EDGE_CURVE('',#32,#174,#176,.T.);
#174 = VERTEX_POINT('',#175);
#175 = CARTESIAN_POINT('',(19.926360527845,6.95,91.5));
#176 = LINE('',#177,#178);
#177 = CARTESIAN_POINT('',(15.745153254429,6.95,91.5));
#178 = VECTOR('',#179,1.);
#179 = DIRECTION('',(1.,0.,0.));
#180 = ORIENTED_EDGE('',*,*,#181,.F.);
#181 = EDGE_CURVE('',#182,#174,#184,.T.);
#182 = VERTEX_POINT('',#183);
#183 = CARTESIAN_POINT('',(19.926360527845,5.7,91.5));
#184 = LINE('',#185,#186);
#185 = CARTESIAN_POINT('',(19.926360527845,5.7,91.5));
#186 = VECTOR('',#187,1.);
#187 = DIRECTION('',(0.,1.,0.));
#188 = ORIENTED_EDGE('',*,*,#189,.F.);
#189 = EDGE_CURVE('',#190,#182,#192,.T.);
#190 = VERTEX_POINT('',#191);
#191 = CARTESIAN_POINT('',(23.926360527845,5.7,91.5));
#192 = LINE('',#193,#194);
#193 = CARTESIAN_POINT('',(23.926360527845,5.7,91.5));
#194 = VECTOR('',#195,1.);
#195 = DIRECTION('',(-1.,0.,0.));
#196 = ORIENTED_EDGE('',*,*,#197,.F.);
#197 = EDGE_CURVE('',#198,#190,#200,.T.);
#198 = VERTEX_POINT('',#199);
#199 = CARTESIAN_POINT('',(23.926360527845,6.95,91.5));
#200 = LINE('',#201,#202);
#201 = CARTESIAN_POINT('',(23.926360527845,6.95,91.5));
#202 = VECTOR('',#203,1.);
#203 = DIRECTION('',(0.,-1.,0.));
#204 = ORIENTED_EDGE('',*,*,#205,.T.);
#205 = EDGE_CURVE('',#198,#206,#208,.T.);
#206 = VERTEX_POINT('',#207);
#207 = CARTESIAN_POINT('',(25.426360527845,6.95,91.5));
#208 = LINE('',#209,#210);
#209 = CARTESIAN_POINT('',(15.745153254429,6.95,91.5));
#210 = VECTOR('',#211,1.);
#211 = DIRECTION('',(1.,0.,0.));
#212 = ORIENTED_EDGE('',*,*,#213,.F.);
#213 = EDGE_CURVE('',#214,#206,#216,.T.);
#214 = VERTEX_POINT('',#215);
#215 = CARTESIAN_POINT('',(28.945153254429,4.447958415842,91.5));
#216 = LINE('',#217,#218);
#217 = CARTESIAN_POINT('',(28.945153254429,4.447958415842,91.5));
#218 = VECTOR('',#219,1.);
#219 = DIRECTION('',(-0.814978406484,0.579491326048,-0.));
#220 = ORIENTED_EDGE('',*,*,#221,.F.);
#221 = EDGE_CURVE('',#222,#214,#224,.T.);
#222 = VERTEX_POINT('',#223);
#223 = CARTESIAN_POINT('',(28.945153254429,0.8,91.5));
#224 = LINE('',#225,#226);
#225 = CARTESIAN_POINT('',(28.945153254429,0.8,91.5));
#226 = VECTOR('',#227,1.);
#227 = DIRECTION('',(0.,1.,-2.22044604925E-16));
#228 = ORIENTED_EDGE('',*,*,#229,.F.);
#229 = EDGE_CURVE('',#230,#222,#232,.T.);
#230 = VERTEX_POINT('',#231);
#231 = CARTESIAN_POINT('',(25.795153254429,0.8,91.5));
#232 = LINE('',#233,#234);
#233 = CARTESIAN_POINT('',(15.745153254429,0.8,91.5));
#234 = VECTOR('',#235,1.);
#235 = DIRECTION('',(1.,0.,0.));
#236 = ORIENTED_EDGE('',*,*,#237,.T.);
#237 = EDGE_CURVE('',#230,#238,#240,.T.);
#238 = VERTEX_POINT('',#239);
#239 = CARTESIAN_POINT('',(25.795153254429,4.15,91.5));
#240 = LINE('',#241,#242);
#241 = CARTESIAN_POINT('',(25.795153254429,0.8,91.5));
#242 = VECTOR('',#243,1.);
#243 = DIRECTION('',(0.,1.,-2.22044604925E-16));
#244 = ORIENTED_EDGE('',*,*,#245,.F.);
#245 = EDGE_CURVE('',#246,#238,#248,.T.);
#246 = VERTEX_POINT('',#247);
#247 = CARTESIAN_POINT('',(18.895153254429,4.15,91.5));
#248 = LINE('',#249,#250);
#249 = CARTESIAN_POINT('',(18.670153254429,4.15,91.5));
#250 = VECTOR('',#251,1.);
#251 = DIRECTION('',(1.,0.,0.));
#252 = ORIENTED_EDGE('',*,*,#253,.F.);
#253 = EDGE_CURVE('',#165,#246,#254,.T.);
#254 = LINE('',#255,#256);
#255 = CARTESIAN_POINT('',(18.895153254429,0.8,91.5));
#256 = VECTOR('',#257,1.);
#257 = DIRECTION('',(0.,1.,-2.22044604925E-16));
#258 = PLANE('',#259);
#259 = AXIS2_PLACEMENT_3D('',#260,#261,#262);
#260 = CARTESIAN_POINT('',(15.745153254429,0.8,91.5));
#261 = DIRECTION('',(0.,-2.22044604925E-16,-1.));
#262 = DIRECTION('',(1.,0.,0.));
#263 = ADVANCED_FACE('',(#264),#291,.F.);
#264 = FACE_BOUND('',#265,.F.);
#265 = EDGE_LOOP('',(#266,#267,#268,#276,#284,#290));
#266 = ORIENTED_EDGE('',*,*,#47,.F.);
#267 = ORIENTED_EDGE('',*,*,#126,.F.);
#268 = ORIENTED_EDGE('',*,*,#269,.T.);
#269 = EDGE_CURVE('',#127,#270,#272,.T.);
#270 = VERTEX_POINT('',#271);
#271 = CARTESIAN_POINT('',(17.895153254429,0.8,92.5));
#272 = LINE('',#273,#274);
#273 = CARTESIAN_POINT('',(17.895153254429,0.8,96.8));
#274 = VECTOR('',#275,1.);
#275 = DIRECTION('',(0.,-2.22044604925E-16,-1.));
#276 = ORIENTED_EDGE('',*,*,#277,.T.);
#277 = EDGE_CURVE('',#270,#278,#280,.T.);
#278 = VERTEX_POINT('',#279);
#279 = CARTESIAN_POINT('',(18.895153254429,0.8,92.5));
#280 = LINE('',#281,#282);
#281 = CARTESIAN_POINT('',(17.895153254429,0.8,92.5));
#282 = VECTOR('',#283,1.);
#283 = DIRECTION('',(1.,0.,0.));
#284 = ORIENTED_EDGE('',*,*,#285,.T.);
#285 = EDGE_CURVE('',#278,#165,#286,.T.);
#286 = LINE('',#287,#288);
#287 = CARTESIAN_POINT('',(18.895153254429,0.8,92.5));
#288 = VECTOR('',#289,1.);
#289 = DIRECTION('',(0.,-2.22044604925E-16,-1.));
#290 = ORIENTED_EDGE('',*,*,#164,.F.);
#291 = PLANE('',#292);
#292 = AXIS2_PLACEMENT_3D('',#293,#294,#295);
#293 = CARTESIAN_POINT('',(22.345153254429,0.8,94.15));
#294 = DIRECTION('',(0.,1.,-2.304236466203E-16));
#295 = DIRECTION('',(0.,2.304236466203E-16,1.));
#296 = ADVANCED_FACE('',(#297),#308,.T.);
#297 = FACE_BOUND('',#298,.T.);
#298 = EDGE_LOOP('',(#299,#300,#301,#307));
#299 = ORIENTED_EDGE('',*,*,#31,.F.);
#300 = ORIENTED_EDGE('',*,*,#119,.F.);
#301 = ORIENTED_EDGE('',*,*,#302,.F.);
#302 = EDGE_CURVE('',#174,#112,#303,.T.);
#303 = LINE('',#304,#305);
#304 = CARTESIAN_POINT('',(19.926360527845,6.95,91.5));
#305 = VECTOR('',#306,1.);
#306 = DIRECTION('',(0.,0.,1.));
#307 = ORIENTED_EDGE('',*,*,#173,.F.);
#308 = PLANE('',#309);
#309 = AXIS2_PLACEMENT_3D('',#310,#311,#312);
#310 = CARTESIAN_POINT('',(22.345153254429,6.95,94.15));
#311 = DIRECTION('',(0.,1.,-2.304236466203E-16));
#312 = DIRECTION('',(0.,2.304236466203E-16,1.));
#313 = ADVANCED_FACE('',(#314),#346,.F.);
#314 = FACE_BOUND('',#315,.F.);
#315 = EDGE_LOOP('',(#316,#324,#325,#331,#332,#340));
#316 = ORIENTED_EDGE('',*,*,#317,.T.);
#317 = EDGE_CURVE('',#318,#64,#320,.T.);
#318 = VERTEX_POINT('',#319);
#319 = CARTESIAN_POINT('',(26.795153254429,0.8,92.5));
#320 = LINE('',#321,#322);
#321 = CARTESIAN_POINT('',(26.795153254429,0.8,92.5));
#322 = VECTOR('',#323,1.);
#323 = DIRECTION('',(0.,2.22044604925E-16,1.));
#324 = ORIENTED_EDGE('',*,*,#61,.F.);
#325 = ORIENTED_EDGE('',*,*,#326,.F.);
#326 = EDGE_CURVE('',#222,#62,#327,.T.);
#327 = LINE('',#328,#329);
#328 = CARTESIAN_POINT('',(28.945153254429,0.8,91.5));
#329 = VECTOR('',#330,1.);
#330 = DIRECTION('',(0.,2.22044604925E-16,1.));
#331 = ORIENTED_EDGE('',*,*,#229,.F.);
#332 = ORIENTED_EDGE('',*,*,#333,.T.);
#333 = EDGE_CURVE('',#230,#334,#336,.T.);
#334 = VERTEX_POINT('',#335);
#335 = CARTESIAN_POINT('',(25.795153254429,0.8,92.5));
#336 = LINE('',#337,#338);
#337 = CARTESIAN_POINT('',(25.795153254429,0.8,91.5));
#338 = VECTOR('',#339,1.);
#339 = DIRECTION('',(0.,2.22044604925E-16,1.));
#340 = ORIENTED_EDGE('',*,*,#341,.T.);
#341 = EDGE_CURVE('',#334,#318,#342,.T.);
#342 = LINE('',#343,#344);
#343 = CARTESIAN_POINT('',(25.795153254429,0.8,92.5));
#344 = VECTOR('',#345,1.);
#345 = DIRECTION('',(1.,0.,0.));
#346 = PLANE('',#347);
#347 = AXIS2_PLACEMENT_3D('',#348,#349,#350);
#348 = CARTESIAN_POINT('',(22.345153254429,0.8,94.15));
#349 = DIRECTION('',(0.,1.,-2.304236466203E-16));
#350 = DIRECTION('',(0.,2.304236466203E-16,1.));
#351 = ADVANCED_FACE('',(#352),#370,.F.);
#352 = FACE_BOUND('',#353,.F.);
#353 = EDGE_LOOP('',(#354,#355,#363,#369));
#354 = ORIENTED_EDGE('',*,*,#317,.F.);
#355 = ORIENTED_EDGE('',*,*,#356,.T.);
#356 = EDGE_CURVE('',#318,#357,#359,.T.);
#357 = VERTEX_POINT('',#358);
#358 = CARTESIAN_POINT('',(26.795153254429,4.15,92.5));
#359 = LINE('',#360,#361);
#360 = CARTESIAN_POINT('',(26.795153254429,0.8,92.5));
#361 = VECTOR('',#362,1.);
#362 = DIRECTION('',(0.,1.,-2.22044604925E-16));
#363 = ORIENTED_EDGE('',*,*,#364,.T.);
#364 = EDGE_CURVE('',#357,#143,#365,.T.);
#365 = LINE('',#366,#367);
#366 = CARTESIAN_POINT('',(26.795153254429,4.15,95.75));
#367 = VECTOR('',#368,1.);
#368 = DIRECTION('',(0.,0.,1.));
#369 = ORIENTED_EDGE('',*,*,#150,.F.);
#370 = PLANE('',#371);
#371 = AXIS2_PLACEMENT_3D('',#372,#373,#374);
#372 = CARTESIAN_POINT('',(26.795153254429,0.8,92.5));
#373 = DIRECTION('',(1.,0.,0.));
#374 = DIRECTION('',(0.,2.22044604925E-16,1.));
#375 = ADVANCED_FACE('',(#376),#417,.F.);
#376 = FACE_BOUND('',#377,.F.);
#377 = EDGE_LOOP('',(#378,#386,#387,#388,#396,#402,#403,#411));
#378 = ORIENTED_EDGE('',*,*,#379,.F.);
#379 = EDGE_CURVE('',#135,#380,#382,.T.);
#380 = VERTEX_POINT('',#381);
#381 = CARTESIAN_POINT('',(17.895153254429,4.15,92.5));
#382 = LINE('',#383,#384);
#383 = CARTESIAN_POINT('',(17.895153254429,4.15,97.9));
#384 = VECTOR('',#385,1.);
#385 = DIRECTION('',(0.,0.,-1.));
#386 = ORIENTED_EDGE('',*,*,#142,.F.);
#387 = ORIENTED_EDGE('',*,*,#364,.F.);
#388 = ORIENTED_EDGE('',*,*,#389,.F.);
#389 = EDGE_CURVE('',#390,#357,#392,.T.);
#390 = VERTEX_POINT('',#391);
#391 = CARTESIAN_POINT('',(25.795153254429,4.15,92.5));
#392 = LINE('',#393,#394);
#393 = CARTESIAN_POINT('',(22.120153254429,4.15,92.5));
#394 = VECTOR('',#395,1.);
#395 = DIRECTION('',(1.,0.,0.));
#396 = ORIENTED_EDGE('',*,*,#397,.F.);
#397 = EDGE_CURVE('',#238,#390,#398,.T.);
#398 = LINE('',#399,#400);
#399 = CARTESIAN_POINT('',(25.795153254429,4.15,95.25));
#400 = VECTOR('',#401,1.);
#401 = DIRECTION('',(0.,0.,1.));
#402 = ORIENTED_EDGE('',*,*,#245,.F.);
#403 = ORIENTED_EDGE('',*,*,#404,.F.);
#404 = EDGE_CURVE('',#405,#246,#407,.T.);
#405 = VERTEX_POINT('',#406);
#406 = CARTESIAN_POINT('',(18.895153254429,4.15,92.5));
#407 = LINE('',#408,#409);
#408 = CARTESIAN_POINT('',(18.895153254429,4.15,95.75));
#409 = VECTOR('',#410,1.);
#410 = DIRECTION('',(0.,0.,-1.));
#411 = ORIENTED_EDGE('',*,*,#412,.F.);
#412 = EDGE_CURVE('',#380,#405,#413,.T.);
#413 = LINE('',#414,#415);
#414 = CARTESIAN_POINT('',(18.170153254429,4.15,92.5));
#415 = VECTOR('',#416,1.);
#416 = DIRECTION('',(1.,0.,0.));
#417 = PLANE('',#418);
#418 = AXIS2_PLACEMENT_3D('',#419,#420,#421);
#419 = CARTESIAN_POINT('',(18.445153254429,4.15,99.));
#420 = DIRECTION('',(0.,1.,0.));
#421 = DIRECTION('',(1.,0.,0.));
#422 = ADVANCED_FACE('',(#423),#434,.F.);
#423 = FACE_BOUND('',#424,.F.);
#424 = EDGE_LOOP('',(#425,#426,#427,#428));
#425 = ORIENTED_EDGE('',*,*,#269,.F.);
#426 = ORIENTED_EDGE('',*,*,#134,.T.);
#427 = ORIENTED_EDGE('',*,*,#379,.T.);
#428 = ORIENTED_EDGE('',*,*,#429,.F.);
#429 = EDGE_CURVE('',#270,#380,#430,.T.);
#430 = LINE('',#431,#432);
#431 = CARTESIAN_POINT('',(17.895153254429,0.8,92.5));
#432 = VECTOR('',#433,1.);
#433 = DIRECTION('',(0.,1.,-2.22044604925E-16));
#434 = PLANE('',#435);
#435 = AXIS2_PLACEMENT_3D('',#436,#437,#438);
#436 = CARTESIAN_POINT('',(17.895153254429,0.8,96.8));
#437 = DIRECTION('',(-1.,0.,0.));
#438 = DIRECTION('',(0.,-2.22044604925E-16,-1.));
#439 = ADVANCED_FACE('',(#440),#451,.F.);
#440 = FACE_BOUND('',#441,.F.);
#441 = EDGE_LOOP('',(#442,#443,#449,#450));
#442 = ORIENTED_EDGE('',*,*,#181,.F.);
#443 = ORIENTED_EDGE('',*,*,#444,.T.);
#444 = EDGE_CURVE('',#182,#104,#445,.T.);
#445 = LINE('',#446,#447);
#446 = CARTESIAN_POINT('',(19.926360527845,5.7,91.5));
#447 = VECTOR('',#448,1.);
#448 = DIRECTION('',(0.,0.,1.));
#449 = ORIENTED_EDGE('',*,*,#111,.F.);
#450 = ORIENTED_EDGE('',*,*,#302,.F.);
#451 = PLANE('',#452);
#452 = AXIS2_PLACEMENT_3D('',#453,#454,#455);
#453 = CARTESIAN_POINT('',(19.926360527845,5.7,91.5));
#454 = DIRECTION('',(-1.,0.,0.));
#455 = DIRECTION('',(0.,1.,0.));
#456 = ADVANCED_FACE('',(#457),#468,.F.);
#457 = FACE_BOUND('',#458,.F.);
#458 = EDGE_LOOP('',(#459,#460,#466,#467));
#459 = ORIENTED_EDGE('',*,*,#189,.F.);
#460 = ORIENTED_EDGE('',*,*,#461,.T.);
#461 = EDGE_CURVE('',#190,#96,#462,.T.);
#462 = LINE('',#463,#464);
#463 = CARTESIAN_POINT('',(23.926360527845,5.7,91.5));
#464 = VECTOR('',#465,1.);
#465 = DIRECTION('',(0.,0.,1.));
#466 = ORIENTED_EDGE('',*,*,#103,.F.);
#467 = ORIENTED_EDGE('',*,*,#444,.F.);
#468 = PLANE('',#469);
#469 = AXIS2_PLACEMENT_3D('',#470,#471,#472);
#470 = CARTESIAN_POINT('',(23.926360527845,5.7,91.5));
#471 = DIRECTION('',(0.,-1.,0.));
#472 = DIRECTION('',(-1.,0.,0.));
#473 = ADVANCED_FACE('',(#474),#485,.F.);
#474 = FACE_BOUND('',#475,.F.);
#475 = EDGE_LOOP('',(#476,#477,#483,#484));
#476 = ORIENTED_EDGE('',*,*,#197,.F.);
#477 = ORIENTED_EDGE('',*,*,#478,.T.);
#478 = EDGE_CURVE('',#198,#88,#479,.T.);
#479 = LINE('',#480,#481);
#480 = CARTESIAN_POINT('',(23.926360527845,6.95,91.5));
#481 = VECTOR('',#482,1.);
#482 = DIRECTION('',(0.,0.,1.));
#483 = ORIENTED_EDGE('',*,*,#95,.F.);
#484 = ORIENTED_EDGE('',*,*,#461,.F.);
#485 = PLANE('',#486);
#486 = AXIS2_PLACEMENT_3D('',#487,#488,#489);
#487 = CARTESIAN_POINT('',(23.926360527845,6.95,91.5));
#488 = DIRECTION('',(1.,0.,0.));
#489 = DIRECTION('',(0.,-1.,0.));
#490 = ADVANCED_FACE('',(#491),#502,.T.);
#491 = FACE_BOUND('',#492,.T.);
#492 = EDGE_LOOP('',(#493,#494,#495,#501));
#493 = ORIENTED_EDGE('',*,*,#478,.T.);
#494 = ORIENTED_EDGE('',*,*,#87,.F.);
#495 = ORIENTED_EDGE('',*,*,#496,.F.);
#496 = EDGE_CURVE('',#206,#80,#497,.T.);
#497 = LINE('',#498,#499);
#498 = CARTESIAN_POINT('',(25.426360527845,6.95,91.5));
#499 = VECTOR('',#500,1.);
#500 = DIRECTION('',(0.,0.,1.));
#501 = ORIENTED_EDGE('',*,*,#205,.F.);
#502 = PLANE('',#503);
#503 = AXIS2_PLACEMENT_3D('',#504,#505,#506);
#504 = CARTESIAN_POINT('',(22.345153254429,6.95,94.15));
#505 = DIRECTION('',(0.,1.,-2.304236466203E-16));
#506 = DIRECTION('',(0.,2.304236466203E-16,1.));
#507 = ADVANCED_FACE('',(#508),#519,.F.);
#508 = FACE_BOUND('',#509,.F.);
#509 = EDGE_LOOP('',(#510,#511,#517,#518));
#510 = ORIENTED_EDGE('',*,*,#213,.F.);
#511 = ORIENTED_EDGE('',*,*,#512,.T.);
#512 = EDGE_CURVE('',#214,#72,#513,.T.);
#513 = LINE('',#514,#515);
#514 = CARTESIAN_POINT('',(28.945153254429,4.447958415842,91.5));
#515 = VECTOR('',#516,1.);
#516 = DIRECTION('',(0.,0.,1.));
#517 = ORIENTED_EDGE('',*,*,#79,.F.);
#518 = ORIENTED_EDGE('',*,*,#496,.F.);
#519 = PLANE('',#520);
#520 = AXIS2_PLACEMENT_3D('',#521,#522,#523);
#521 = CARTESIAN_POINT('',(28.945153254429,4.447958415842,91.5));
#522 = DIRECTION('',(-0.579491326048,-0.814978406484,0.));
#523 = DIRECTION('',(-0.814978406484,0.579491326048,0.));
#524 = ADVANCED_FACE('',(#525),#531,.T.);
#525 = FACE_BOUND('',#526,.T.);
#526 = EDGE_LOOP('',(#527,#528,#529,#530));
#527 = ORIENTED_EDGE('',*,*,#326,.F.);
#528 = ORIENTED_EDGE('',*,*,#221,.T.);
#529 = ORIENTED_EDGE('',*,*,#512,.T.);
#530 = ORIENTED_EDGE('',*,*,#71,.F.);
#531 = PLANE('',#532);
#532 = AXIS2_PLACEMENT_3D('',#533,#534,#535);
#533 = CARTESIAN_POINT('',(28.945153254429,0.8,91.5));
#534 = DIRECTION('',(1.,0.,0.));
#535 = DIRECTION('',(0.,2.22044604925E-16,1.));
#536 = ADVANCED_FACE('',(#537),#548,.F.);
#537 = FACE_BOUND('',#538,.F.);
#538 = EDGE_LOOP('',(#539,#540,#546,#547));
#539 = ORIENTED_EDGE('',*,*,#285,.F.);
#540 = ORIENTED_EDGE('',*,*,#541,.T.);
#541 = EDGE_CURVE('',#278,#405,#542,.T.);
#542 = LINE('',#543,#544);
#543 = CARTESIAN_POINT('',(18.895153254429,0.8,92.5));
#544 = VECTOR('',#545,1.);
#545 = DIRECTION('',(0.,1.,-2.22044604925E-16));
#546 = ORIENTED_EDGE('',*,*,#404,.T.);
#547 = ORIENTED_EDGE('',*,*,#253,.F.);
#548 = PLANE('',#549);
#549 = AXIS2_PLACEMENT_3D('',#550,#551,#552);
#550 = CARTESIAN_POINT('',(18.895153254429,0.8,92.5));
#551 = DIRECTION('',(-1.,0.,0.));
#552 = DIRECTION('',(0.,-2.22044604925E-16,-1.));
#553 = ADVANCED_FACE('',(#554),#565,.F.);
#554 = FACE_BOUND('',#555,.F.);
#555 = EDGE_LOOP('',(#556,#557,#558,#559));
#556 = ORIENTED_EDGE('',*,*,#333,.F.);
#557 = ORIENTED_EDGE('',*,*,#237,.T.);
#558 = ORIENTED_EDGE('',*,*,#397,.T.);
#559 = ORIENTED_EDGE('',*,*,#560,.F.);
#560 = EDGE_CURVE('',#334,#390,#561,.T.);
#561 = LINE('',#562,#563);
#562 = CARTESIAN_POINT('',(25.795153254429,0.8,92.5));
#563 = VECTOR('',#564,1.);
#564 = DIRECTION('',(0.,1.,-2.22044604925E-16));
#565 = PLANE('',#566);
#566 = AXIS2_PLACEMENT_3D('',#567,#568,#569);
#567 = CARTESIAN_POINT('',(25.795153254429,0.8,91.5));
#568 = DIRECTION('',(1.,0.,0.));
#569 = DIRECTION('',(0.,2.22044604925E-16,1.));
#570 = ADVANCED_FACE('',(#571),#577,.F.);
#571 = FACE_BOUND('',#572,.F.);
#572 = EDGE_LOOP('',(#573,#574,#575,#576));
#573 = ORIENTED_EDGE('',*,*,#277,.F.);
#574 = ORIENTED_EDGE('',*,*,#429,.T.);
#575 = ORIENTED_EDGE('',*,*,#412,.T.);
#576 = ORIENTED_EDGE('',*,*,#541,.F.);
#577 = PLANE('',#578);
#578 = AXIS2_PLACEMENT_3D('',#579,#580,#581);
#579 = CARTESIAN_POINT('',(17.895153254429,0.8,92.5));
#580 = DIRECTION('',(0.,-2.22044604925E-16,-1.));
#581 = DIRECTION('',(1.,0.,0.));
#582 = ADVANCED_FACE('',(#583),#589,.F.);
#583 = FACE_BOUND('',#584,.F.);
#584 = EDGE_LOOP('',(#585,#586,#587,#588));
#585 = ORIENTED_EDGE('',*,*,#341,.F.);
#586 = ORIENTED_EDGE('',*,*,#560,.T.);
#587 = ORIENTED_EDGE('',*,*,#389,.T.);
#588 = ORIENTED_EDGE('',*,*,#356,.F.);
#589 = PLANE('',#590);
#590 = AXIS2_PLACEMENT_3D('',#591,#592,#593);
#591 = CARTESIAN_POINT('',(25.795153254429,0.8,92.5));
#592 = DIRECTION('',(0.,-2.22044604925E-16,-1.));
#593 = DIRECTION('',(1.,0.,0.));
#594 = ( GEOMETRIC_REPRESENTATION_CONTEXT(3) 
GLOBAL_UNCERTAINTY_ASSIGNED_CONTEXT((#598)) GLOBAL_UNIT_ASSIGNED_CONTEXT
((#595,#596,#597)) REPRESENTATION_CONTEXT('Context #1',
  '3D Context with UNIT and UNCERTAINTY') );
#595 = ( LENGTH_UNIT() NAMED_UNIT(*) SI_UNIT(.MILLI.,.METRE.) );
#596 = ( NAMED_UNIT(*) PLANE_ANGLE_UNIT() SI_UNIT($,.RADIAN.) );
#597 = ( NAMED_UNIT(*) SI_UNIT($,.STERADIAN.) SOLID_ANGLE_UNIT() );
#598 = UNCERTAINTY_MEASURE_WITH_UNIT(LENGTH_MEASURE(2.E-06),#595,
  'distance_accuracy_value','confusion accuracy');
#599 = PRODUCT_RELATED_PRODUCT_CATEGORY('part',$,(#7));
#600 = MECHANICAL_DESIGN_GEOMETRIC_PRESENTATION_REPRESENTATION('',(#601)
  ,#594);
#601 = STYLED_ITEM('color',(#602),#15);
#602 = PRESENTATION_STYLE_ASSIGNMENT((#603,#609));
#603 = SURFACE_STYLE_USAGE(.BOTH.,#604);
#604 = SURFACE_SIDE_STYLE('',(#605));
#605 = SURFACE_STYLE_FILL_AREA(#606);
#606 = FILL_AREA_STYLE('',(#607));
#607 = FILL_AREA_STYLE_COLOUR('',#608);
#608 = COLOUR_RGB('',0.447058818107,0.474509808674,0.501960817233);
#609 = CURVE_STYLE('',#610,POSITIVE_LENGTH_MEASURE(0.1),#611);
#610 = DRAUGHTING_PRE_DEFINED_CURVE_FONT('continuous');
#611 = COLOUR_RGB('',9.803921802644E-02,9.803921802644E-02,
  9.803921802644E-02);
ENDSEC;
END-ISO-10303-21;
